<?xml version="1.0" standalone="no"?>
<!DOCTYPE svg PUBLIC "-//W3C//DTD SVG 20010904//EN"
 "http://www.w3.org/TR/2001/REC-SVG-20010904/DTD/svg10.dtd">
<svg version="1.0" xmlns="http://www.w3.org/2000/svg"
 width="300.000000pt" height="300.000000pt" viewBox="0 0 300.000000 300.000000"
 preserveAspectRatio="xMidYMid meet">
<metadata>
Created by potrace 1.11, written by Peter Selinger 2001-2013
</metadata>
<g transform="translate(0.000000,300.000000) scale(0.100000,-0.100000)"
fill="#000000" stroke="none">
<path d="M1409 2866 c-3 -3 -29 -8 -59 -11 -30 -3 -70 -10 -89 -15 -19 -5 -38
-7 -43 -4 -9 6 -57 -7 -228 -62 -94 -30 -249 -115 -347 -190 -72 -55 -214
-200 -251 -256 -71 -107 -92 -143 -126 -218 -21 -47 -42 -93 -47 -102 -17 -33
-50 -164 -65 -253 -45 -279 -17 -553 81 -791 81 -196 217 -384 365 -506 138
-114 267 -190 382 -227 97 -31 161 -52 183 -61 11 -4 88 -16 170 -25 140 -16
160 -16 295 0 187 21 346 68 500 147 64 32 127 69 142 81 14 12 50 40 79 62
143 108 289 287 365 450 89 191 108 252 135 440 23 160 22 217 -7 395 -32 202
-122 411 -252 586 -64 86 -212 231 -277 271 -22 14 -49 33 -60 43 -52 46 -348
180 -396 180 -9 0 -36 7 -60 16 -24 9 -62 18 -84 19 -22 1 -80 10 -130 19 -88
15 -167 21 -176 12z m-2 -506 l-2 -90 -57 0 c-47 0 -59 -4 -68 -20 -7 -13 -10
-85 -8 -199 l3 -179 -35 -6 c-19 -3 -65 -6 -102 -6 l-68 0 0 -85 c0 -47 -3
-85 -7 -85 -5 0 -81 -1 -170 -3 -89 -1 -165 -6 -169 -10 -5 -5 -11 -32 -14
-60 l-5 -52 -102 -2 c-128 -2 -129 0 -113 99 25 147 107 313 222 445 110 125
217 199 419 287 41 18 200 53 246 55 l31 1 -1 -90z m294 75 c46 -9 98 -21 114
-28 17 -6 33 -11 37 -9 13 4 160 -69 228 -112 167 -108 328 -309 385 -480 31
-96 46 -164 43 -200 l-3 -38 -103 -3 c-116 -4 -122 0 -122 74 0 23 -1 42 -2
43 -2 0 -70 4 -153 7 l-150 6 -5 77 c-3 42 -8 80 -12 84 -5 4 -35 6 -68 5 -34
-1 -81 1 -105 5 l-45 6 0 193 c0 216 4 205 -75 205 -73 0 -75 3 -75 89 0 74 4
91 21 91 4 0 44 -7 90 -15z m-110 -417 c2 -94 -1 -111 -15 -121 -6 -4 -45 -6
-86 -5 l-75 3 2 90 c1 50 2 93 2 98 1 4 39 7 86 7 l85 0 1 -72z m-553 -450 c7
-7 12 -41 12 -84 0 -80 -3 -84 -71 -84 -70 0 -79 10 -79 94 0 40 3 76 7 79 11
12 118 8 131 -5z m1080 -80 l4 -88 -75 0 c-59 0 -76 3 -81 16 -11 29 -6 140 6
152 8 8 36 12 78 10 l65 -3 3 -87z m-1424 -64 c11 -4 16 -19 16 -43 0 -68 5
-70 190 -73 l165 -3 5 -125 5 -125 95 -5 95 -5 6 -170 c3 -93 6 -171 7 -172 1
-1 28 -3 60 -5 l57 -3 3 -77 c2 -43 -1 -78 -6 -78 -4 0 -33 4 -63 10 -30 5
-65 11 -79 14 -14 2 -43 11 -64 20 -21 9 -45 16 -54 16 -29 0 -198 88 -257
134 -114 89 -137 111 -184 171 -113 145 -183 301 -205 457 -4 27 -4 52 -1 58
7 11 183 14 209 4z m1806 -13 c15 -30 12 -62 -16 -163 -44 -153 -124 -289
-239 -403 -96 -96 -136 -127 -235 -179 -129 -67 -364 -138 -406 -122 -15 6
-20 121 -6 143 4 7 36 13 72 15 l65 3 3 165 c2 116 6 166 15 172 6 4 53 8 103
8 56 0 94 4 102 12 8 8 12 51 12 130 l0 117 153 3 152 3 3 45 c5 66 11 70 118
70 82 0 95 -2 104 -19z m-910 -470 c0 -112 1 -111 -80 -111 -80 0 -80 0 -80
104 0 51 3 96 7 99 3 4 39 7 80 7 l73 0 0 -99z"/>
</g>
</svg>
